<?xml version="1.0" encoding="UTF-8"?>
<svg id="Layer_1" xmlns="http://www.w3.org/2000/svg" version="1.1" viewBox="0 0 197 68">
  <!-- Generator: Adobe Illustrator 29.1.0, SVG Export Plug-In . SVG Version: 2.1.0 Build 142)  -->
  <defs>
    <style>
      .st0 {
        fill: #007bff;
      }
    </style>
  </defs>
  <g id="Layer_11" data-name="Layer_1">
    <g>
      <g>
        <polygon class="st0" points="135.8 48.6 135.8 65.1 150.2 56.9 150.2 40.3 135.8 48.6"/>
        <polygon class="st0" points="151.8 21.1 151.8 37.5 166.2 29.3 166.2 12.8 151.8 21.1"/>
        <polygon class="st0" points="167.7 48.5 167.7 65 182 56.9 182 40.3 167.7 48.5"/>
        <polygon class="st0" points="120.4 38.9 134.8 47.3 149.2 38.9 134.7 30.7 120.4 38.9"/>
        <polygon class="st0" points="136.5 11.2 150.9 19.5 165.4 11.1 150.9 2.9 136.5 11.2"/>
        <polygon class="st0" points="152.5 38.9 166.9 47.2 181.3 38.8 166.9 30.6 152.5 38.9"/>
        <path d="M86.2,19.9h-4.1c-.2,0-.4,0-.5.3l-14.5,26-14.5-26c0-.2-.3-.3-.5-.3h-4.1c-.3,0-.5.2-.6.5l-5.4,44.2c0,.3.2.6.6.6h7.5c.3,0,.5-.2.6-.5l3.2-24,12.7,22.5c.2.4.8.4,1,0l12.7-22.5,3.2,24c0,.3.3.5.6.5h7.5c.3,0,.6-.3.6-.6l-5.4-44.2c0-.3-.3-.5-.6-.5"/>
        <path d="M16.5,19.9H.5c-.3,0-.5.2-.5.5v44.3c0,.3.2.5.6.5h16c12.5,0,22.7-10.2,22.7-22.7s-10.2-22.6-22.7-22.6M15.8,57.2h-7.3v-29.6h7.3c8.4,0,14.6,6.4,14.6,14.8s-6.2,14.8-14.6,14.8"/>
        <path d="M105.6,65.1h-7.3c-.3,0-.5-.2-.5-.5V20.3c0-.3.2-.5.5-.5h7.3c.3,0,.5.2.5.5v44.3c0,.3-.2.5-.5.5"/>
      </g>
      <path d="M194.2,54.3c.9.5,1.6,1.2,2.1,2.1.5.9.8,1.9.8,2.9s-.3,2.1-.8,2.9-1.2,1.6-2.1,2.1c-.9.5-1.9.8-2.9.8s-2.1-.3-2.9-.8-1.6-1.2-2.1-2.1c-.5-.9-.8-1.9-.8-2.9s.3-2.1.8-2.9,1.2-1.6,2.1-2.1c.9-.5,1.9-.8,2.9-.8s2.1.3,2.9.8ZM193.7,63.5c.8-.4,1.3-1,1.8-1.8.4-.8.7-1.6.7-2.4s-.2-1.8-.6-2.4c-.4-.8-1-1.3-1.8-1.8-.7-.4-1.6-.7-2.4-.7s-1.8.2-2.4.7c-.8.4-1.3,1-1.8,1.8-.4.8-.6,1.6-.6,2.4s.2,1.8.6,2.4c.4.8,1,1.4,1.8,1.8.8.4,1.6.7,2.4.7s1.8-.2,2.4-.7h0ZM193.9,59.6c-.2.3-.6.6-1,.8l1.5,2.3h-1.4l-1.3-2h-1.5v2h-1.4v-6.5h2.6c.9,0,1.5.2,2,.6.5.4.7,1,.7,1.7s0,.9-.3,1.3h0ZM191.3,59.5c.5,0,.8,0,1.1-.3s.4-.5.4-.9,0-.7-.4-.9c-.3-.2-.6-.3-1.1-.3h-1.2v2.3h1.2Z"/>
    </g>
  </g>
</svg>